<svg width="217" height="8" viewBox="0 0 217 8" fill="none" xmlns="http://www.w3.org/2000/svg">
<path d="M216.64 5.01516C216.787 4.86872 216.787 4.63128 216.64 4.48483L214.254 2.09835C214.107 1.9519 213.87 1.9519 213.723 2.09835C213.577 2.2448 213.577 2.48223 213.723 2.62868L215.845 4.75L213.723 6.87132C213.577 7.01777 213.577 7.2552 213.723 7.40165C213.87 7.5481 214.107 7.5481 214.254 7.40165L216.64 5.01516ZM108.188 4.75L107.996 5.07233L108.193 5.18951L108.387 5.06749L108.188 4.75ZM81.1406 4.75L80.948 5.07175L81.1447 5.1895L81.3392 5.06813L81.1406 4.75ZM135.234 4.75L135.036 5.06813L135.127 5.125H135.234V4.75ZM121.711 4.75L121.52 5.07261L121.712 5.18628L121.903 5.07204L121.711 4.75ZM94.6641 4.75L94.4719 5.07204L94.6688 5.18951L94.8631 5.06781L94.6641 4.75ZM67.6172 4.75V5.125H67.7243L67.8152 5.06844L67.6172 4.75ZM74.25 0.625L74.4426 0.303247L74.2463 0.185712L74.052 0.306559L74.25 0.625ZM87.75 0.625L87.9421 0.30296L87.7456 0.185705L87.5515 0.306874L87.75 0.625ZM101.25 0.625L101.442 0.302674L101.245 0.185698L101.051 0.307191L101.25 0.625ZM114.75 0.625L114.941 0.302391L114.744 0.18569L114.55 0.307511L114.75 0.625ZM128.625 0.625L128.824 0.306874L128.629 0.185705L128.433 0.30296L128.625 0.625ZM0 5.125H54.0938V4.375H0V5.125ZM162.281 5.125H216.375V4.375H162.281V5.125ZM135.234 5.125H162.281V4.375H135.234V5.125ZM54.0938 5.125H67.6172V4.375H54.0938V5.125ZM67.8152 5.06844L74.448 0.943441L74.052 0.306559L67.4191 4.43156L67.8152 5.06844ZM74.0574 0.946753L80.948 5.07175L81.3332 4.42825L74.4426 0.303247L74.0574 0.946753ZM81.3392 5.06813L87.9485 0.943126L87.5515 0.306874L80.9421 4.43187L81.3392 5.06813ZM87.5579 0.94704L94.4719 5.07204L94.8562 4.42796L87.9421 0.30296L87.5579 0.94704ZM94.8631 5.06781L101.449 0.942809L101.051 0.307191L94.465 4.43219L94.8631 5.06781ZM101.058 0.947326L107.996 5.07233L108.379 4.42767L101.442 0.302674L101.058 0.947326ZM108.387 5.06749L114.95 0.942489L114.55 0.307511L107.988 4.43251L108.387 5.06749ZM114.559 0.947609L121.52 5.07261L121.902 4.42739L114.941 0.302391L114.559 0.947609ZM121.903 5.07204L128.817 0.94704L128.433 0.30296L121.519 4.42796L121.903 5.07204ZM128.426 0.943126L135.036 5.06813L135.433 4.43187L128.824 0.306874L128.426 0.943126Z" fill="white"/>
</svg>
