<svg width="1087" height="22" viewBox="0 0 1087 22" fill="none" xmlns="http://www.w3.org/2000/svg">
<path d="M1052.5 18.0002L1052.17 18.3771L1052.31 18.5002H1052.5V18.0002ZM27.5 18.0002V18.5002H27.5811L27.6581 18.4746L27.5 18.0002ZM87 18.0002L86.8172 18.4656L86.9053 18.5002H87V18.0002ZM57.25 18.0002L57.0583 18.462L57.2346 18.5352L57.4148 18.4723L57.25 18.0002ZM44 12.5002L44.1917 12.0384L44.0191 11.9668L43.8419 12.0259L44 12.5002ZM73 12.5002L73.1828 12.0349L73.0102 11.9671L72.8352 12.0282L73 12.5002ZM278 18.0002V18.5002H278.124L278.233 18.4427L278 18.0002ZM355 18.0002L354.762 18.4401L354.874 18.5002H355V18.0002ZM316.5 18.0002L316.272 18.4452L316.497 18.5607L316.724 18.4475L316.5 18.0002ZM297 8.00024L297.228 7.55534L296.997 7.4368L296.767 7.55779L297 8.00024ZM336.5 8.00024L336.738 7.56039L336.509 7.43673L336.276 7.55303L336.5 8.00024ZM572.5 18.0002V18.5002H572.647L572.77 18.4211L572.5 18.0002ZM678 18.0002L677.725 18.4181L677.983 18.5872L678.25 18.4335L678 18.0002ZM625.25 18.0002L624.978 18.4199L625.247 18.5939L625.517 18.4228L625.25 18.0002ZM599 1.00024L599.272 0.580566L599.001 0.40538L598.73 0.579397L599 1.00024ZM652.125 1.00024L652.4 0.582365L652.13 0.40536L651.858 0.577687L652.125 1.00024ZM707.5 1.00024L707.774 0.581759L707.517 0.413648L707.25 0.567029L707.5 1.00024ZM733.5 18.0002L733.226 18.4187L733.351 18.5002H733.5V18.0002ZM887.25 18.0002V18.5002H887.425L887.562 18.3907L887.25 18.0002ZM969 18.0002L968.657 18.3638L968.987 18.6753L969.329 18.3771L969 18.0002ZM930.5 18.0002L930.194 18.3959L930.511 18.6407L930.819 18.3851L930.5 18.0002ZM1011.5 18.0002L1011.2 18.4023L1011.51 18.6296L1011.81 18.3925L1011.5 18.0002ZM1086.85 18.3538C1087.05 18.1585 1087.05 17.842 1086.85 17.6467L1083.67 14.4647C1083.48 14.2694 1083.16 14.2694 1082.96 14.4647C1082.77 14.66 1082.77 14.9766 1082.96 15.1718L1085.79 18.0002L1082.96 20.8287C1082.77 21.0239 1082.77 21.3405 1082.96 21.5358C1083.16 21.731 1083.48 21.731 1083.67 21.5358L1086.85 18.3538ZM988.5 1.00024L988.797 0.598156L988.474 0.359414L988.171 0.623358L988.5 1.00024ZM951 1.00024L951.343 0.636738L951.022 0.332834L950.681 0.615365L951 1.00024ZM908.5 1.00024L908.806 0.604602L908.495 0.364219L908.188 0.60981L908.5 1.00024ZM1033 1.00024L1033.33 0.623358L1033.02 0.350503L1032.69 0.608036L1033 1.00024ZM0 18.5002H27.5V17.5002H0V18.5002ZM27.6581 18.4746L44.1581 12.9746L43.8419 12.0259L27.3419 17.5259L27.6581 18.4746ZM43.8083 12.962L57.0583 18.462L57.4417 17.5384L44.1917 12.0384L43.8083 12.962ZM57.4148 18.4723L73.1648 12.9723L72.8352 12.0282L57.0852 17.5282L57.4148 18.4723ZM72.8172 12.9656L86.8172 18.4656L87.1828 17.5349L73.1828 12.0349L72.8172 12.9656ZM87 18.5002H278V17.5002H87V18.5002ZM278.233 18.4427L297.233 8.4427L296.767 7.55779L277.767 17.5578L278.233 18.4427ZM296.772 8.44515L316.272 18.4452L316.728 17.5553L297.228 7.55534L296.772 8.44515ZM316.724 18.4475L336.724 8.44746L336.276 7.55303L316.276 17.553L316.724 18.4475ZM336.262 8.4401L354.762 18.4401L355.238 17.5604L336.738 7.56039L336.262 8.4401ZM355 18.5002H572.5V17.5002H355V18.5002ZM572.77 18.4211L599.27 1.42109L598.73 0.579397L572.23 17.5794L572.77 18.4211ZM598.728 1.41992L624.978 18.4199L625.522 17.5806L599.272 0.580566L598.728 1.41992ZM625.517 18.4228L652.392 1.4228L651.858 0.577687L624.983 17.5777L625.517 18.4228ZM651.85 1.41812L677.725 18.4181L678.275 17.5824L652.4 0.582365L651.85 1.41812ZM678.25 18.4335L707.75 1.43346L707.25 0.567029L677.75 17.567L678.25 18.4335ZM707.226 1.41873L733.226 18.4187L733.774 17.5818L707.774 0.581759L707.226 1.41873ZM733.5 18.5002H887.25V17.5002H733.5V18.5002ZM1052.5 18.5002H1086.5V17.5002H1052.5V18.5002ZM969.329 18.3771L988.829 1.37713L988.171 0.623358L968.671 17.6234L969.329 18.3771ZM988.203 1.40233L1011.2 18.4023L1011.8 17.5982L988.797 0.598156L988.203 1.40233ZM930.819 18.3851L951.319 1.38512L950.681 0.615365L930.181 17.6154L930.819 18.3851ZM950.657 1.36375L968.657 18.3638L969.343 17.6367L951.343 0.636738L950.657 1.36375ZM887.562 18.3907L908.812 1.39068L908.188 0.60981L886.938 17.6098L887.562 18.3907ZM908.194 1.39589L930.194 18.3959L930.806 17.6046L908.806 0.604602L908.194 1.39589ZM1011.81 18.3925L1033.31 1.39245L1032.69 0.608036L1011.19 17.608L1011.81 18.3925ZM1032.67 1.37713L1052.17 18.3771L1052.83 17.6234L1033.33 0.623358L1032.67 1.37713Z" fill="white"/>
</svg>
