<svg width="42" height="42" viewBox="0 0 42 42" fill="none" xmlns="http://www.w3.org/2000/svg">
<g clip-path="url(#clip0_52_2)">
<mask id="mask0_52_2" style="mask-type:luminance" maskUnits="userSpaceOnUse" x="0" y="0" width="42" height="42">
<path d="M22.0883 40.4419C21.3877 40.7122 20.6117 40.7122 19.9113 40.4419C14.4453 38.3435 9.74462 34.6363 6.42996 29.8101C3.1153 24.9839 1.34266 19.2656 1.34621 13.4108V5.51911C1.34455 5.18802 1.4495 4.8652 1.64553 4.59837C1.84156 4.33155 2.11827 4.13491 2.43472 4.03754C14.55 0.440043 27.4496 0.440043 39.5648 4.03754C39.8813 4.13491 40.1579 4.33155 40.354 4.59837C40.55 4.8652 40.655 5.18802 40.6533 5.51911V13.4108C40.6568 19.2656 38.8842 24.9839 35.5695 29.8101C32.255 34.6363 27.5541 38.3435 22.0883 40.4419Z" fill="#fff" stroke="#fff" stroke-width="2.64567" stroke-linecap="round" stroke-linejoin="round"/>
</mask>
<g mask="url(#mask0_52_2)">
<path d="M-12.2363 27.7795V-9.42519C13.8345 -18.7401 61.6771 -31.1197 44.4802 1.15749C27.2834 33.4347 -0.496171 32.3544 -12.2363 27.7795Z" fill="white"/>
<path d="M-4.46338 31.58C25.1338 36.5433 56.0551 13.0631 50.4331 -12.0708C55.0631 -8.80236 67.0555 -2.6419 74.4299 -3.34459C83.6479 -4.22297 73.8743 16.973 76.5787 19.2067C78.7422 20.9939 79.6135 42.3382 79.7785 52.7869L-1.70276 60.5511L-4.46338 31.58Z" fill="white"/>
</g>
</g>
<defs>
<clipPath id="clip0_52_2">
<rect width="42" height="42" fill="white"/>
</clipPath>
</defs>
</svg>
