<svg width="37" height="54" viewBox="0 0 37 54" fill="none" xmlns="http://www.w3.org/2000/svg">
<path d="M18.4994 2H10.2503C8.06219 2 5.96369 2.87806 4.41646 4.44102C2.86923 6.00398 2 8.12381 2 10.3342C2 12.5445 2.86923 14.6643 4.41646 16.2273C5.96369 17.7903 8.06219 18.6683 10.2503 18.6683H18.4994V2Z" stroke="white" stroke-width="3"/>
<path d="M18.4994 18.6658H10.2503C8.06219 18.6658 5.96369 19.5438 4.41646 21.1068C2.86923 22.6697 2 24.7896 2 26.9999C2 29.2103 2.86923 31.3301 4.41646 32.8931C5.96369 34.456 8.06219 35.3341 10.2503 35.3341H18.4994V18.6658Z" stroke="white" stroke-width="3"/>
<path d="M34.9997 27.0012C34.9997 29.2115 34.1305 31.3313 32.5833 32.8943C31.0361 34.4573 28.9376 35.3353 26.7494 35.3353C24.5613 35.3353 22.4628 34.4573 20.9156 32.8943C19.3684 31.3313 18.4991 29.2115 18.4991 27.0012C18.4991 24.7908 19.3684 22.671 20.9156 21.108C22.4628 19.5451 24.5613 18.667 26.7494 18.667C28.9376 18.667 31.0361 19.5451 32.5833 21.108C34.1305 22.671 34.9997 24.7908 34.9997 27.0012ZM10.2501 35.3366H18.4991V43.6695C18.4986 45.3175 18.0144 46.9283 17.1077 48.2983C16.201 49.6683 14.9125 50.736 13.4051 51.3663C11.8978 51.9966 10.2392 52.1613 8.63922 51.8395C7.03922 51.5177 5.56961 50.7238 4.4162 49.5584C3.2628 48.3929 2.47739 46.9081 2.1593 45.2917C1.84121 43.6754 2.00471 42 2.62914 40.4775C3.25357 38.955 4.31087 37.6538 5.66737 36.7382C7.02387 35.8227 8.61864 35.3366 10.2501 35.3366Z" stroke="white" stroke-width="3"/>
<path d="M18.4995 2H26.7486C28.9367 2 31.0352 2.87806 32.5824 4.44102C34.1297 6.00398 34.9989 8.12381 34.9989 10.3342C34.9989 12.5445 34.1297 14.6643 32.5824 16.2273C31.0352 17.7903 28.9367 18.6683 26.7486 18.6683H18.4995V2Z" stroke="white" stroke-width="3"/>
</svg>
