<svg width="192" height="76" viewBox="0 0 192 76" fill="none" xmlns="http://www.w3.org/2000/svg">
<path d="M139 0.673489L139.13 1.15616L139 0.173489L139 0.673489ZM1 37.9792L0.869518 37.4966L1.00857 38.4792L1 37.9792ZM144.499 35.5189L144.709 35.9723L144.49 35.019L144.499 35.5189ZM66.625 71.7292L66.4142 71.2759L66.625 72.2292L66.625 71.7292ZM191.104 72.0828C191.299 71.8875 191.299 71.571 191.104 71.3757L187.922 68.1937C187.726 67.9985 187.41 67.9985 187.214 68.1937C187.019 68.389 187.019 68.7056 187.214 68.9008L190.043 71.7292L187.214 74.5577C187.019 74.7529 187.019 75.0695 187.214 75.2648C187.41 75.46 187.726 75.46 187.922 75.2648L191.104 72.0828ZM94.375 1.17349L139 1.17349L139 0.173489L94.375 0.17349L94.375 1.17349ZM138.87 0.190815L0.869518 37.4966L1.13048 38.4619L139.13 1.15616L138.87 0.190815ZM1.00857 38.4792L144.507 36.0189L144.49 35.019L0.991429 37.4793L1.00857 38.4792ZM144.288 35.0656L66.4142 71.2759L66.8358 72.1826L144.709 35.9723L144.288 35.0656ZM66.625 72.2292L190.75 72.2292L190.75 71.2292L66.625 71.2292L66.625 72.2292Z" fill="white"/>
</svg>
