<svg width="291" height="164" viewBox="0 0 291 164" fill="none" xmlns="http://www.w3.org/2000/svg">
<path d="M4.48218 38.352V0.911613H17.4545C21.4622 0.911613 24.8019 1.75534 27.4737 3.44279C30.1807 5.09509 32.2021 7.34503 33.538 10.1926C34.8739 13.005 35.5419 16.1338 35.5419 19.5791C35.5419 23.3758 34.8036 26.6804 33.3271 29.4929C31.8506 32.3053 29.7588 34.4849 27.0519 36.0317C24.3449 37.5786 21.1458 38.352 17.4545 38.352H4.48218ZM30.7432 19.5791C30.7432 16.7666 30.2158 14.2706 29.1612 12.091C28.1417 9.91137 26.6476 8.20634 24.6789 6.9759C22.7102 5.74546 20.3021 5.13025 17.4545 5.13025H9.22814V34.1334H17.4545C20.3372 34.1334 22.7629 33.5006 24.7316 32.235C26.7003 30.9342 28.1944 29.194 29.2139 27.0144C30.2334 24.7996 30.7432 22.3212 30.7432 19.5791Z" fill="white"/>
<path d="M56.2037 38.352V0.911613H60.9497V38.352H56.2037Z" fill="white"/>
<path d="M98.905 38.6157C96.4441 38.6157 94.1415 38.0883 91.997 37.0337C89.8877 35.9439 88.042 34.5025 86.46 32.7096C84.878 30.8815 83.6476 28.8425 82.7687 26.5925C81.8898 24.3075 81.4504 21.952 81.4504 19.5263C81.4504 16.9952 81.8898 14.6046 82.7687 12.3547C83.6476 10.0696 84.8605 8.04813 86.4073 6.29037C87.9893 4.53261 89.8349 3.16155 91.9443 2.1772C94.0887 1.1577 96.409 0.647949 98.905 0.647949C102.526 0.647949 105.514 1.40379 107.87 2.91546C110.225 4.42714 112 6.39584 113.196 8.82155L109.557 11.3527C108.467 9.1731 106.973 7.55596 105.075 6.5013C103.176 5.44665 101.085 4.91932 98.7995 4.91932C96.9012 4.91932 95.1785 5.3236 93.6317 6.13217C92.0849 6.94075 90.749 8.04814 89.624 9.45435C88.5342 10.8254 87.6905 12.3898 87.0928 14.1476C86.5303 15.9053 86.2491 17.7334 86.2491 19.6318C86.2491 21.6357 86.5655 23.534 87.1983 25.327C87.8662 27.0847 88.7979 28.6491 89.9931 30.0202C91.1884 31.3561 92.5771 32.4107 94.159 33.1842C95.741 33.9576 97.4461 34.3443 99.2741 34.3443C101.419 34.3443 103.458 33.7994 105.391 32.7096C107.325 31.6198 109.153 29.9499 110.875 27.6999V32.6041C107.5 36.6118 103.51 38.6157 98.905 38.6157ZM110.295 23.2704H102.227V19.6845H114.303V38.352H110.295V23.2704Z" fill="white"/>
<path d="M135.495 38.352V0.911613H140.241V38.352H135.495Z" fill="white"/>
<path d="M190.166 5.13025H177.247V38.352H172.501V5.13025H159.581V0.911613H190.166V5.13025Z" fill="white"/>
<path d="M217.37 0.911613H221.378L236.67 38.352H231.608L227.178 27.3835H211.464L207.087 38.352H202.025L217.37 0.911613ZM226.124 23.6922L219.374 6.39584L212.413 23.6922H226.124Z" fill="white"/>
<path d="M255.641 38.352V0.911613H260.387V34.1334H281.269V38.352H255.641Z" fill="white"/>
<g filter="url(#filter0_b_274_838)">
<path d="M49.8132 89.829C49.3969 89.3261 48.3227 88.6617 46.6442 87.6741C44.9658 86.6505 43.0053 85.5551 40.8435 84.4058C38.6682 83.2745 36.3989 82.2688 33.9954 81.4069C31.5247 80.5449 29.2554 80.1498 26.9727 80.1498C23.9112 80.1498 21.6284 80.8143 20.1783 82.2868C18.7683 83.6157 18.3924 85.7167 19.48 88.5719C20.326 90.8166 21.6822 92.6483 23.5083 93.9951C25.3345 95.288 27.7112 96.5091 30.5579 97.5507C33.4045 98.5204 36.8152 99.6158 40.8435 100.999C43.6633 101.825 46.3623 102.776 48.9001 103.836C51.4111 104.859 53.8012 106.009 56.0974 107.23C60.5553 109.618 64.2882 112.743 67.0812 116.532C68.3031 118.417 68.7865 120.644 68.706 123.158C68.4374 125.672 67.6586 128.545 66.3964 131.688C65.161 134.543 63.8048 137.183 62.4621 139.607C61.4013 142.031 60.3674 144.24 59.226 146.234C57.3327 150.13 55.1171 153.345 52.4047 155.805C49.9072 158.229 47.1276 160.061 43.9319 161.3C40.7361 162.503 37.3523 163.132 33.9014 163.329C32.102 163.383 30.2625 163.347 28.4229 163.167C26.6101 162.988 24.7168 162.701 22.7698 162.288C20.9033 161.803 18.9966 161.228 17.1704 160.546C15.3443 159.845 13.5181 159.037 11.7188 158.103C9.85235 157.134 8.02618 156.02 6.25373 154.835C4.44099 153.632 2.64168 152.303 0.896075 150.867C0.896075 150.867 2.48054 145.479 4.61555 140.074C7.54279 134.795 11.4771 129.677 11.4771 129.677C11.6517 130.144 12.4976 131.059 13.9209 132.406C15.2771 133.627 16.969 134.956 18.9698 136.375C21.0242 137.74 23.3203 138.925 25.9253 139.984C28.5706 141.008 31.3635 141.547 34.3445 141.529C37.4597 141.529 39.9841 140.864 41.958 139.553C44.0393 138.207 45.6506 136.339 46.6308 133.987C47.6782 131.401 47.611 129.407 46.4697 127.989C45.4358 126.552 43.717 125.241 41.1792 124.128C38.6951 122.961 35.6738 121.704 32.2095 120.267C29.7522 119.261 27.3755 118.274 25.1599 117.232C22.8101 116.155 20.5811 115.023 18.5535 113.82C14.3238 111.468 10.752 108.559 7.86505 105.129C5.03181 101.699 2.8968 97.407 1.35262 92.2712C0.318684 88.6976 -0.164713 85.4114 0.0501306 82.3945C0.600666 79.4136 1.62117 76.702 3.11165 74.2418C4.80354 71.7996 6.83112 69.6088 9.16754 67.7592C11.6248 65.9275 14.1358 64.3831 16.875 63.1082C19.6277 61.8332 22.4475 60.8635 25.1868 60.2529C27.9529 59.6064 30.7056 59.3191 33.4314 59.355C37.2046 59.4089 40.5212 60.0015 43.3008 61.1508C46.2817 62.336 48.7524 63.7726 50.7666 65.4786C53.0224 67.2025 54.8754 68.8905 56.3525 70.5964C56.3525 70.5964 53.5058 75.4091 51.3708 80.1858C49.9609 84.9804 49.8132 89.829 49.8132 89.829ZM107.294 162.491C104.447 162.491 101.654 162.132 98.8613 161.431C96.0952 160.713 93.4634 159.654 90.9793 158.235C88.522 156.745 86.2259 155.021 84.2117 153.081C82.211 151.124 80.452 148.933 79.0152 146.527C77.6859 144.031 76.7728 141.427 76.2491 138.661C76.1283 135.896 76.2491 133.005 76.5982 129.952C76.8265 126.845 77.0951 123.703 77.3233 120.506C76.9608 117.346 76.1014 114.095 75.148 110.809C73.9396 107.451 72.9728 104.147 72.1537 100.915C71.254 97.7182 70.6095 94.5756 70.3141 91.5408C70.1261 88.4701 70.2201 85.5969 70.7035 82.8853C71.5628 80.1198 72.9593 77.4801 74.6915 75.0558C76.6519 72.5597 78.9749 70.3509 81.5799 68.4295C84.252 66.4901 86.9778 64.8559 89.7708 63.5091C92.5906 62.1802 95.4373 61.1567 98.2168 60.5102C101.01 59.8637 103.789 59.5405 106.502 59.5764C109.295 59.5944 111.779 60.0074 113.968 60.7796C116.237 61.5517 118.197 62.6651 119.903 64.1017C121.635 65.5383 123.152 67.2084 124.414 69.1837C125.797 71.1231 127.261 73.3498 128.684 75.828C130.403 78.3061 132.229 80.9279 134.27 83.7293C136.593 86.4947 138.862 89.4577 141.038 92.5105C143.186 95.5992 145.2 98.6699 146.986 101.777C148.718 104.901 150.222 108.062 151.35 111.258C152.344 114.616 152.666 117.92 152.008 121.135C150.773 124.349 149.068 127.474 147.013 130.527C144.838 133.579 142.501 136.471 140.084 139.182C138.003 141.912 135.989 144.462 133.908 146.886C132.001 149.256 130 151.393 127.946 153.297C125.999 155.2 123.891 156.888 121.756 158.325C119.634 159.743 117.445 160.767 115.042 161.485C112.652 162.15 110.114 162.509 107.294 162.491ZM92.6443 111.097C93.6246 115.011 94.4705 118.836 94.8599 122.535C94.8465 126.127 95.1016 129.359 95.7327 132.233C96.3638 135.088 97.5052 137.386 99.3716 139.11C101.345 140.816 104.031 141.678 107.321 141.66C110.705 141.642 113.927 140.798 117.042 139.092C120.386 137.261 123.488 134.908 126.334 131.963C129.195 129.018 131.598 125.678 133.384 122.087C134.686 118.405 134.539 114.634 133.424 110.827C132.001 106.93 129.987 103.159 127.556 99.5498C125.153 95.9045 122.481 92.6721 119.553 89.8348C116.666 86.8539 113.699 84.5733 110.624 82.993C107.71 81.3589 104.676 80.5508 101.52 80.5508C98.1497 80.5328 95.3433 81.4128 93.262 83.1367C91.4224 84.8426 90.1871 87.1592 89.5962 90.1221C89.1128 92.9415 89.1665 96.2636 89.7842 99.9449C90.4422 103.59 91.4224 107.29 92.6443 111.097ZM190.217 162.491C187.196 162.491 184.363 162.132 181.691 161.449C179.005 160.749 176.508 159.69 174.212 158.325C171.915 156.906 169.807 155.254 167.941 153.387C166.168 151.501 164.651 149.418 163.416 147.083C162.315 144.713 161.482 142.181 160.932 139.487C160.582 136.794 160.556 133.956 161.052 130.922C161.549 127.923 162.127 124.816 162.664 121.62C162.758 118.423 162.194 115.173 161.321 111.815C161.321 111.815 160.26 108.6 158.353 103.734C157.36 101.292 156.151 98.4544 154.862 95.4196C153.573 92.3848 152.244 89.1345 151.035 85.9021C149.881 82.6877 149.29 79.4554 149.169 76.4565C149.357 73.4755 149.881 70.7101 150.74 68.3397C152.633 63.5989 153.949 60.4384 153.949 60.4384C153.949 60.4384 158.474 60.5282 163.026 60.6539C167.538 60.7616 172.063 60.8693 172.063 60.8693C172.063 60.8693 170.707 63.958 168.76 68.609C167.914 70.9435 167.337 73.6731 167.068 76.6181C167.149 79.5452 167.645 82.7237 168.532 85.9021C169.754 89.1345 171.016 92.3848 172.278 95.4376C173.58 98.4544 174.749 101.31 175.756 103.734C177.595 108.582 178.629 111.815 178.629 111.815C179.515 115.64 180.053 119.339 179.999 122.984C179.609 126.486 179.422 129.647 179.596 132.412C179.824 135.142 180.858 137.35 182.523 138.985C184.282 140.619 186.659 141.427 189.627 141.409C192.675 141.391 195.387 140.583 197.737 138.949C200.221 137.261 202.557 135.034 204.867 132.34C207.217 129.539 209.218 126.45 210.775 123.02C211.89 119.537 211.876 115.909 210.95 112.12C210.95 112.12 209.862 108.798 208.009 103.842C207.029 101.382 205.834 98.5083 204.572 95.4376C203.363 92.4028 202.074 89.1524 201.148 85.956C200.637 82.7955 200.396 79.6529 200.422 76.7258C200.812 73.7808 201.47 71.0692 202.369 68.7527C204.33 64.0837 205.646 60.9591 205.646 60.9591C205.646 60.9591 210.238 60.9412 214.83 60.9232C219.342 60.9591 223.948 60.9412 223.948 60.9412C223.948 60.9412 222.592 64.0478 220.577 68.7168C219.651 71.0333 218.993 73.7628 218.563 76.6899C218.348 79.635 218.442 82.8494 218.805 86.0817C219.436 89.3679 220.564 92.708 221.786 95.8686C223.008 99.0111 224.109 101.956 225.129 104.47C226.982 109.498 228.043 112.838 228.043 112.838C228.983 116.43 229.198 119.86 228.58 123.128C227.493 126.36 226.042 129.431 224.324 132.394C222.524 135.303 220.927 138.069 219.382 140.637C217.878 143.187 216.375 145.575 214.75 147.784C213.246 150.01 211.648 151.986 209.943 153.764C208.345 155.541 206.532 157.104 204.545 158.451C202.665 159.761 200.557 160.767 198.193 161.449C195.79 162.114 193.145 162.473 190.217 162.491ZM237.516 161.09C237.516 161.09 237.422 159.618 237.342 157.086C237.288 154.536 237.315 150.89 237.664 146.455C237.892 144.228 238.268 141.804 238.671 139.2C239.181 136.524 239.812 133.705 240.739 130.796C241.504 127.851 241.867 124.798 241.504 121.638C240.672 118.477 239.624 115.263 238.416 112.03C237.113 108.798 235.744 105.53 234.374 102.297C233.018 99.047 231.729 95.8147 230.668 92.708C230.064 89.6373 229.701 86.6743 229.567 83.8909C229.674 81.1075 230.037 78.5395 230.601 76.2051C232.414 71.5541 234.038 67.6752 235.207 64.9637C236.334 62.2521 236.992 60.7077 236.992 60.7077C236.992 60.7077 239.047 60.6898 242.162 60.6539C243.72 60.6 245.532 60.582 247.493 60.5461C249.44 60.5102 251.521 60.4563 253.576 60.4204C255.657 60.3665 257.752 60.2947 259.699 60.2767C261.632 60.2588 263.445 60.2049 264.976 60.2049C268.064 60.151 270.132 60.151 270.132 60.151C273.811 60.0792 276.752 61.0489 278.941 62.9704C281.156 64.9098 282.687 67.5136 283.479 70.8358C284.338 74.0861 284.983 77.6955 285.534 81.7001C286.541 85.6687 287.427 89.7271 288.232 93.8753C289.186 96.6946 289.924 99.4421 290.408 102.118C290.878 104.793 291.079 107.415 290.972 109.965C290.864 112.533 290.421 114.85 289.656 116.933C288.85 119.052 287.682 120.901 286.165 122.625C284.459 124.241 282.526 125.534 280.444 126.396C278.269 127.276 276.013 127.779 273.677 127.869C273.677 127.869 269.917 128.066 266.265 128.282C262.492 128.587 258.759 128.91 258.759 128.91C258.759 128.91 258.289 130.922 257.644 133.885C257.161 136.848 256.731 140.78 256.369 144.731C256.127 148.664 256.1 152.578 256.167 155.523C256.275 158.451 256.382 160.39 256.382 160.39C256.382 160.39 251.749 160.552 247.09 160.749C242.35 160.929 237.516 161.09 237.516 161.09ZM254.328 108.457C254.328 108.457 257.805 108.205 261.283 108.026C264.734 107.864 268.252 107.738 268.252 107.738C269.514 107.685 270.454 107.11 271.152 106.068C271.837 104.991 272.079 103.447 271.931 101.364C271.77 99.2984 271.099 96.7485 270.038 93.7675C269.393 90.7147 268.695 88.2187 267.715 86.2972C266.95 84.268 265.942 82.8134 264.707 81.8796C263.619 80.9459 262.371 80.5149 260.988 80.5508C260.988 80.5508 257.47 80.6047 253.965 80.6765C250.622 80.7124 247.238 80.7483 247.238 80.7483C247.238 80.7483 247.036 87.6979 248.419 94.5936C251.306 101.543 254.328 108.457 254.328 108.457Z" fill="white"/>
</g>
<defs>
<filter id="filter0_b_274_838" x="-60" y="-0.647949" width="411" height="224" filterUnits="userSpaceOnUse" color-interpolation-filters="sRGB">
<feFlood flood-opacity="0" result="BackgroundImageFix"/>
<feGaussianBlur in="BackgroundImageFix" stdDeviation="30"/>
<feComposite in2="SourceAlpha" operator="in" result="effect1_backgroundBlur_274_838"/>
<feBlend mode="normal" in="SourceGraphic" in2="effect1_backgroundBlur_274_838" result="shape"/>
</filter>
</defs>
</svg>
