<svg width="76" height="54" viewBox="0 0 76 54" fill="none" xmlns="http://www.w3.org/2000/svg">
<path d="M71.9551 9.81893C71.5475 8.30449 70.7493 6.92367 69.6403 5.8147C68.5313 4.70572 67.1505 3.90749 65.636 3.49991C61.4973 1.90092 21.4011 1.11753 9.76821 3.54462C8.25355 3.95236 6.87259 4.75086 5.7636 5.86017C4.6546 6.96948 3.85649 8.35066 3.44918 9.86543C1.58012 18.0625 1.43883 35.7836 3.49568 44.1649C3.90327 45.6793 4.7015 47.0601 5.81048 48.1691C6.91945 49.2781 8.30027 50.0763 9.81471 50.4839C18.0117 52.3708 56.9811 52.6356 65.6825 50.4839C67.197 50.0763 68.5778 49.2781 69.6868 48.1691C70.7958 47.0601 71.594 45.6793 72.0016 44.1649C73.994 35.2345 74.1353 18.6115 71.9551 9.81893Z" stroke="white" stroke-width="3" stroke-linecap="round" stroke-linejoin="round"/>
<path d="M49.5185 26.9907L30.8333 16.2754V37.7061L49.5185 26.9907Z" stroke="white" stroke-width="3" stroke-linecap="round" stroke-linejoin="round"/>
</svg>
